<?xml version="1.0" encoding="UTF-8" standalone="no"?>
<!DOCTYPE svg PUBLIC "-//W3C//DTD SVG 1.1//EN"
 "http://www.w3.org/Graphics/SVG/1.1/DTD/svg11.dtd">
<!-- Generated by graphviz version 14.0.4 (20251115.1723)
 -->
<!-- Title: G Pages: 1 -->
<svg width="352pt" height="452pt"
 viewBox="0.00 0.00 352.00 452.00" xmlns="http://www.w3.org/2000/svg" xmlns:xlink="http://www.w3.org/1999/xlink">
<g id="graph0" class="graph" transform="scale(1 1) rotate(0) translate(4 448)">
<title>G</title>
<polygon fill="white" stroke="none" points="-4,4 -4,-448 348.25,-448 348.25,4 -4,4"/>
<!-- Node1EC2EEB9160 -->
<g id="node1" class="node">
<title>Node1EC2EEB9160</title>
<path fill="#c4fe88" stroke="black" d="M100.88,-320.5C100.88,-320.5 244.62,-320.5 244.62,-320.5 250.62,-320.5 256.62,-326.5 256.62,-332.5 256.62,-332.5 256.62,-431.5 256.62,-431.5 256.62,-437.5 250.62,-443.5 244.62,-443.5 244.62,-443.5 100.88,-443.5 100.88,-443.5 94.88,-443.5 88.88,-437.5 88.88,-431.5 88.88,-431.5 88.88,-332.5 88.88,-332.5 88.88,-326.5 94.88,-320.5 100.88,-320.5"/>
<polygon fill="none" stroke="black" points="101.88,-412 101.88,-434.5 243.62,-434.5 243.62,-412 101.88,-412"/>
<text xml:space="preserve" text-anchor="start" x="109.38" y="-418.2" font-family="Times New Roman,serif" font-size="14.00"> ptr: 0x1EC2EEB9160 </text>
<polygon fill="none" stroke="black" points="101.88,-384.5 101.88,-407 243.62,-407 243.62,-384.5 101.88,-384.5"/>
<text xml:space="preserve" text-anchor="start" x="167.12" y="-390.7" font-family="Times New Roman,serif" font-size="14.00"> / </text>
<polygon fill="#f9b78e" stroke="none" points="101.88,-357 101.88,-379.5 243.62,-379.5 243.62,-357 101.88,-357"/>
<polygon fill="none" stroke="black" points="101.88,-357 101.88,-379.5 243.62,-379.5 243.62,-357 101.88,-357"/>
<text xml:space="preserve" text-anchor="start" x="106.75" y="-363.2" font-family="Times New Roman,serif" font-size="14.00"> left: 0x1EC2EEB8B00 </text>
<polygon fill="#fae0af" stroke="none" points="101.88,-329.5 101.88,-352 243.62,-352 243.62,-329.5 101.88,-329.5"/>
<polygon fill="none" stroke="black" points="101.88,-329.5 101.88,-352 243.62,-352 243.62,-329.5 101.88,-329.5"/>
<text xml:space="preserve" text-anchor="start" x="104.88" y="-335.7" font-family="Times New Roman,serif" font-size="14.00"> right: 0x1EC2EEB8B60</text>
</g>
<!-- Node1EC2EEB8B00 -->
<g id="node2" class="node">
<title>Node1EC2EEB8B00</title>
<path fill="#f9b78e" stroke="black" d="M12,-160.5C12,-160.5 153.5,-160.5 153.5,-160.5 159.5,-160.5 165.5,-166.5 165.5,-172.5 165.5,-172.5 165.5,-271.5 165.5,-271.5 165.5,-277.5 159.5,-283.5 153.5,-283.5 153.5,-283.5 12,-283.5 12,-283.5 6,-283.5 0,-277.5 0,-271.5 0,-271.5 0,-172.5 0,-172.5 0,-166.5 6,-160.5 12,-160.5"/>
<polygon fill="none" stroke="black" points="13,-252 13,-274.5 152.5,-274.5 152.5,-252 13,-252"/>
<text xml:space="preserve" text-anchor="start" x="18.25" y="-258.2" font-family="Times New Roman,serif" font-size="14.00"> ptr: 0x1EC2EEB8B00 </text>
<polygon fill="none" stroke="black" points="13,-224.5 13,-247 152.5,-247 152.5,-224.5 13,-224.5"/>
<text xml:space="preserve" text-anchor="start" x="70" y="-230.7" font-family="Times New Roman,serif" font-size="14.00"> cos </text>
<polygon fill="#808080" stroke="none" points="13,-197 13,-219.5 152.5,-219.5 152.5,-197 13,-197"/>
<polygon fill="none" stroke="black" points="13,-197 13,-219.5 152.5,-219.5 152.5,-197 13,-197"/>
<text xml:space="preserve" text-anchor="start" x="48.25" y="-203.2" font-family="Times New Roman,serif" font-size="14.00"> left: NULL </text>
<polygon fill="#b5d8cf" stroke="none" points="13,-169.5 13,-192 152.5,-192 152.5,-169.5 13,-169.5"/>
<polygon fill="none" stroke="black" points="13,-169.5 13,-192 152.5,-192 152.5,-169.5 13,-169.5"/>
<text xml:space="preserve" text-anchor="start" x="16" y="-175.7" font-family="Times New Roman,serif" font-size="14.00"> right: 0x1EC2EEB9190</text>
</g>
<!-- Node1EC2EEB9160&#45;&gt;Node1EC2EEB8B00 -->
<g id="edge2" class="edge">
<title>Node1EC2EEB9160&#45;&gt;Node1EC2EEB8B00</title>
<path fill="none" stroke="black" d="M138.21,-320.36C133.28,-311.7 128.16,-302.73 123.13,-293.89"/>
<polygon fill="black" stroke="black" points="126.23,-292.27 118.24,-285.31 120.15,-295.73 126.23,-292.27"/>
</g>
<!-- Node1EC2EEB8B60 -->
<g id="node4" class="node">
<title>Node1EC2EEB8B60</title>
<path fill="#fae0af" stroke="black" d="M195.25,-160.5C195.25,-160.5 332.25,-160.5 332.25,-160.5 338.25,-160.5 344.25,-166.5 344.25,-172.5 344.25,-172.5 344.25,-271.5 344.25,-271.5 344.25,-277.5 338.25,-283.5 332.25,-283.5 332.25,-283.5 195.25,-283.5 195.25,-283.5 189.25,-283.5 183.25,-277.5 183.25,-271.5 183.25,-271.5 183.25,-172.5 183.25,-172.5 183.25,-166.5 189.25,-160.5 195.25,-160.5"/>
<polygon fill="none" stroke="black" points="196.25,-252 196.25,-274.5 331.25,-274.5 331.25,-252 196.25,-252"/>
<text xml:space="preserve" text-anchor="start" x="199.25" y="-258.2" font-family="Times New Roman,serif" font-size="14.00"> ptr: 0x1EC2EEB8B60 </text>
<polygon fill="none" stroke="black" points="196.25,-224.5 196.25,-247 331.25,-247 331.25,-224.5 196.25,-224.5"/>
<text xml:space="preserve" text-anchor="start" x="256.62" y="-230.7" font-family="Times New Roman,serif" font-size="14.00"> 5 </text>
<polygon fill="#808080" stroke="none" points="196.25,-197 196.25,-219.5 331.25,-219.5 331.25,-197 196.25,-197"/>
<polygon fill="none" stroke="black" points="196.25,-197 196.25,-219.5 331.25,-219.5 331.25,-197 196.25,-197"/>
<text xml:space="preserve" text-anchor="start" x="229.25" y="-203.2" font-family="Times New Roman,serif" font-size="14.00"> left: NULL </text>
<polygon fill="#808080" stroke="none" points="196.25,-169.5 196.25,-192 331.25,-192 331.25,-169.5 196.25,-169.5"/>
<polygon fill="none" stroke="black" points="196.25,-169.5 196.25,-192 331.25,-192 331.25,-169.5 196.25,-169.5"/>
<text xml:space="preserve" text-anchor="start" x="227.38" y="-175.7" font-family="Times New Roman,serif" font-size="14.00"> right: NULL</text>
</g>
<!-- Node1EC2EEB9160&#45;&gt;Node1EC2EEB8B60 -->
<g id="edge3" class="edge">
<title>Node1EC2EEB9160&#45;&gt;Node1EC2EEB8B60</title>
<path fill="none" stroke="black" d="M207.67,-320.36C212.66,-311.7 217.83,-302.73 222.92,-293.89"/>
<polygon fill="black" stroke="black" points="225.91,-295.72 227.86,-285.31 219.84,-292.23 225.91,-295.72"/>
</g>
<!-- Node1EC2EEB9190 -->
<g id="node3" class="node">
<title>Node1EC2EEB9190</title>
<path fill="#b5d8cf" stroke="black" d="M15.38,-0.5C15.38,-0.5 150.12,-0.5 150.12,-0.5 156.12,-0.5 162.12,-6.5 162.12,-12.5 162.12,-12.5 162.12,-111.5 162.12,-111.5 162.12,-117.5 156.12,-123.5 150.12,-123.5 150.12,-123.5 15.38,-123.5 15.38,-123.5 9.38,-123.5 3.38,-117.5 3.38,-111.5 3.38,-111.5 3.38,-12.5 3.38,-12.5 3.38,-6.5 9.38,-0.5 15.38,-0.5"/>
<polygon fill="none" stroke="black" points="16.38,-92 16.38,-114.5 149.12,-114.5 149.12,-92 16.38,-92"/>
<text xml:space="preserve" text-anchor="start" x="19.38" y="-98.2" font-family="Times New Roman,serif" font-size="14.00"> ptr: 0x1EC2EEB9190 </text>
<polygon fill="none" stroke="black" points="16.38,-64.5 16.38,-87 149.12,-87 149.12,-64.5 16.38,-64.5"/>
<text xml:space="preserve" text-anchor="start" x="75.62" y="-70.7" font-family="Times New Roman,serif" font-size="14.00"> x </text>
<polygon fill="#808080" stroke="none" points="16.38,-37 16.38,-59.5 149.12,-59.5 149.12,-37 16.38,-37"/>
<polygon fill="none" stroke="black" points="16.38,-37 16.38,-59.5 149.12,-59.5 149.12,-37 16.38,-37"/>
<text xml:space="preserve" text-anchor="start" x="48.25" y="-43.2" font-family="Times New Roman,serif" font-size="14.00"> left: NULL </text>
<polygon fill="#808080" stroke="none" points="16.38,-9.5 16.38,-32 149.12,-32 149.12,-9.5 16.38,-9.5"/>
<polygon fill="none" stroke="black" points="16.38,-9.5 16.38,-32 149.12,-32 149.12,-9.5 16.38,-9.5"/>
<text xml:space="preserve" text-anchor="start" x="46.38" y="-15.7" font-family="Times New Roman,serif" font-size="14.00"> right: NULL</text>
</g>
<!-- Node1EC2EEB8B00&#45;&gt;Node1EC2EEB9190 -->
<g id="edge1" class="edge">
<title>Node1EC2EEB8B00&#45;&gt;Node1EC2EEB9190</title>
<path fill="none" stroke="black" d="M82.75,-160.36C82.75,-152.17 82.75,-143.69 82.75,-135.32"/>
<polygon fill="black" stroke="black" points="86.25,-135.51 82.75,-125.51 79.25,-135.51 86.25,-135.51"/>
</g>
</g>
</svg>
