<?xml version="1.0" encoding="UTF-8" standalone="no"?>
<!DOCTYPE svg PUBLIC "-//W3C//DTD SVG 1.1//EN"
 "http://www.w3.org/Graphics/SVG/1.1/DTD/svg11.dtd">
<!-- Generated by graphviz version 14.0.4 (20251115.1723)
 -->
<!-- Title: G Pages: 1 -->
<svg width="534pt" height="772pt"
 viewBox="0.00 0.00 534.00 772.00" xmlns="http://www.w3.org/2000/svg" xmlns:xlink="http://www.w3.org/1999/xlink">
<g id="graph0" class="graph" transform="scale(1 1) rotate(0) translate(4 768)">
<title>G</title>
<polygon fill="white" stroke="none" points="-4,4 -4,-768 529.62,-768 529.62,4 -4,4"/>
<!-- Node1EC2EEB8BF0 -->
<g id="node1" class="node">
<title>Node1EC2EEB8BF0</title>
<path fill="#cb88fd" stroke="black" d="M283.75,-640.5C283.75,-640.5 426,-640.5 426,-640.5 432,-640.5 438,-646.5 438,-652.5 438,-652.5 438,-751.5 438,-751.5 438,-757.5 432,-763.5 426,-763.5 426,-763.5 283.75,-763.5 283.75,-763.5 277.75,-763.5 271.75,-757.5 271.75,-751.5 271.75,-751.5 271.75,-652.5 271.75,-652.5 271.75,-646.5 277.75,-640.5 283.75,-640.5"/>
<polygon fill="none" stroke="black" points="284.75,-732 284.75,-754.5 425,-754.5 425,-732 284.75,-732"/>
<text xml:space="preserve" text-anchor="start" x="290" y="-738.2" font-family="Times New Roman,serif" font-size="14.00"> ptr: 0x1EC2EEB8BF0 </text>
<polygon fill="none" stroke="black" points="284.75,-704.5 284.75,-727 425,-727 425,-704.5 284.75,-704.5"/>
<text xml:space="preserve" text-anchor="start" x="349.25" y="-710.7" font-family="Times New Roman,serif" font-size="14.00"> / </text>
<polygon fill="#cf9d91" stroke="none" points="284.75,-677 284.75,-699.5 425,-699.5 425,-677 284.75,-677"/>
<polygon fill="none" stroke="black" points="284.75,-677 284.75,-699.5 425,-699.5 425,-677 284.75,-677"/>
<text xml:space="preserve" text-anchor="start" x="288.5" y="-683.2" font-family="Times New Roman,serif" font-size="14.00"> left: 0x1EC2EEBA160 </text>
<polygon fill="#d0a2d0" stroke="none" points="284.75,-649.5 284.75,-672 425,-672 425,-649.5 284.75,-649.5"/>
<polygon fill="none" stroke="black" points="284.75,-649.5 284.75,-672 425,-672 425,-649.5 284.75,-649.5"/>
<text xml:space="preserve" text-anchor="start" x="287.75" y="-655.7" font-family="Times New Roman,serif" font-size="14.00"> right: 0x1EC2EEB9F50</text>
</g>
<!-- Node1EC2EEBA160 -->
<g id="node2" class="node">
<title>Node1EC2EEBA160</title>
<path fill="#cf9d91" stroke="black" d="M191.25,-480.5C191.25,-480.5 336.5,-480.5 336.5,-480.5 342.5,-480.5 348.5,-486.5 348.5,-492.5 348.5,-492.5 348.5,-591.5 348.5,-591.5 348.5,-597.5 342.5,-603.5 336.5,-603.5 336.5,-603.5 191.25,-603.5 191.25,-603.5 185.25,-603.5 179.25,-597.5 179.25,-591.5 179.25,-591.5 179.25,-492.5 179.25,-492.5 179.25,-486.5 185.25,-480.5 191.25,-480.5"/>
<polygon fill="none" stroke="black" points="192.25,-572 192.25,-594.5 335.5,-594.5 335.5,-572 192.25,-572"/>
<text xml:space="preserve" text-anchor="start" x="199" y="-578.2" font-family="Times New Roman,serif" font-size="14.00"> ptr: 0x1EC2EEBA160 </text>
<polygon fill="none" stroke="black" points="192.25,-544.5 192.25,-567 335.5,-567 335.5,-544.5 192.25,-544.5"/>
<text xml:space="preserve" text-anchor="start" x="256.75" y="-550.7" font-family="Times New Roman,serif" font-size="14.00"> * </text>
<polygon fill="#cddefd" stroke="none" points="192.25,-517 192.25,-539.5 335.5,-539.5 335.5,-517 192.25,-517"/>
<polygon fill="none" stroke="black" points="192.25,-517 192.25,-539.5 335.5,-539.5 335.5,-517 192.25,-517"/>
<text xml:space="preserve" text-anchor="start" x="196" y="-523.2" font-family="Times New Roman,serif" font-size="14.00"> left: 0x1EC2EEBA0D0 </text>
<polygon fill="#dbd284" stroke="none" points="192.25,-489.5 192.25,-512 335.5,-512 335.5,-489.5 192.25,-489.5"/>
<polygon fill="none" stroke="black" points="192.25,-489.5 192.25,-512 335.5,-512 335.5,-489.5 192.25,-489.5"/>
<text xml:space="preserve" text-anchor="start" x="195.25" y="-495.7" font-family="Times New Roman,serif" font-size="14.00"> right: 0x1EC2EEB8CE0</text>
</g>
<!-- Node1EC2EEB8BF0&#45;&gt;Node1EC2EEBA160 -->
<g id="edge6" class="edge">
<title>Node1EC2EEB8BF0&#45;&gt;Node1EC2EEBA160</title>
<path fill="none" stroke="black" d="M319.95,-640.36C314.96,-631.7 309.79,-622.73 304.7,-613.89"/>
<polygon fill="black" stroke="black" points="307.78,-612.23 299.76,-605.31 301.72,-615.72 307.78,-612.23"/>
</g>
<!-- Node1EC2EEB9F50 -->
<g id="node8" class="node">
<title>Node1EC2EEB9F50</title>
<path fill="#d0a2d0" stroke="black" d="M378.12,-480.5C378.12,-480.5 513.62,-480.5 513.62,-480.5 519.62,-480.5 525.62,-486.5 525.62,-492.5 525.62,-492.5 525.62,-591.5 525.62,-591.5 525.62,-597.5 519.62,-603.5 513.62,-603.5 513.62,-603.5 378.12,-603.5 378.12,-603.5 372.12,-603.5 366.12,-597.5 366.12,-591.5 366.12,-591.5 366.12,-492.5 366.12,-492.5 366.12,-486.5 372.12,-480.5 378.12,-480.5"/>
<polygon fill="none" stroke="black" points="379.12,-572 379.12,-594.5 512.62,-594.5 512.62,-572 379.12,-572"/>
<text xml:space="preserve" text-anchor="start" x="382.12" y="-578.2" font-family="Times New Roman,serif" font-size="14.00"> ptr: 0x1EC2EEB9F50 </text>
<polygon fill="none" stroke="black" points="379.12,-544.5 379.12,-567 512.62,-567 512.62,-544.5 379.12,-544.5"/>
<text xml:space="preserve" text-anchor="start" x="435.38" y="-550.7" font-family="Times New Roman,serif" font-size="14.00"> 25 </text>
<polygon fill="#808080" stroke="none" points="379.12,-517 379.12,-539.5 512.62,-539.5 512.62,-517 379.12,-517"/>
<polygon fill="none" stroke="black" points="379.12,-517 379.12,-539.5 512.62,-539.5 512.62,-517 379.12,-517"/>
<text xml:space="preserve" text-anchor="start" x="411.38" y="-523.2" font-family="Times New Roman,serif" font-size="14.00"> left: NULL </text>
<polygon fill="#808080" stroke="none" points="379.12,-489.5 379.12,-512 512.62,-512 512.62,-489.5 379.12,-489.5"/>
<polygon fill="none" stroke="black" points="379.12,-489.5 379.12,-512 512.62,-512 512.62,-489.5 379.12,-489.5"/>
<text xml:space="preserve" text-anchor="start" x="409.5" y="-495.7" font-family="Times New Roman,serif" font-size="14.00"> right: NULL</text>
</g>
<!-- Node1EC2EEB8BF0&#45;&gt;Node1EC2EEB9F50 -->
<g id="edge7" class="edge">
<title>Node1EC2EEB8BF0&#45;&gt;Node1EC2EEB9F50</title>
<path fill="none" stroke="black" d="M389.8,-640.36C394.79,-631.7 399.96,-622.73 405.05,-613.89"/>
<polygon fill="black" stroke="black" points="408.03,-615.72 409.99,-605.31 401.97,-612.23 408.03,-615.72"/>
</g>
<!-- Node1EC2EEBA0D0 -->
<g id="node3" class="node">
<title>Node1EC2EEBA0D0</title>
<path fill="#cddefd" stroke="black" d="M99.62,-320.5C99.62,-320.5 244.12,-320.5 244.12,-320.5 250.12,-320.5 256.12,-326.5 256.12,-332.5 256.12,-332.5 256.12,-431.5 256.12,-431.5 256.12,-437.5 250.12,-443.5 244.12,-443.5 244.12,-443.5 99.62,-443.5 99.62,-443.5 93.62,-443.5 87.62,-437.5 87.62,-431.5 87.62,-431.5 87.62,-332.5 87.62,-332.5 87.62,-326.5 93.62,-320.5 99.62,-320.5"/>
<polygon fill="none" stroke="black" points="100.62,-412 100.62,-434.5 243.12,-434.5 243.12,-412 100.62,-412"/>
<text xml:space="preserve" text-anchor="start" x="105.5" y="-418.2" font-family="Times New Roman,serif" font-size="14.00"> ptr: 0x1EC2EEBA0D0 </text>
<polygon fill="none" stroke="black" points="100.62,-384.5 100.62,-407 243.12,-407 243.12,-384.5 100.62,-384.5"/>
<text xml:space="preserve" text-anchor="start" x="164.75" y="-390.7" font-family="Times New Roman,serif" font-size="14.00"> * </text>
<polygon fill="#bfbeb7" stroke="none" points="100.62,-357 100.62,-379.5 243.12,-379.5 243.12,-357 100.62,-357"/>
<polygon fill="none" stroke="black" points="100.62,-357 100.62,-379.5 243.12,-379.5 243.12,-357 100.62,-357"/>
<text xml:space="preserve" text-anchor="start" x="105.5" y="-363.2" font-family="Times New Roman,serif" font-size="14.00"> left: 0x1EC2EEBA190 </text>
<polygon fill="#d0a3fc" stroke="none" points="100.62,-329.5 100.62,-352 243.12,-352 243.12,-329.5 100.62,-329.5"/>
<polygon fill="none" stroke="black" points="100.62,-329.5 100.62,-352 243.12,-352 243.12,-329.5 100.62,-329.5"/>
<text xml:space="preserve" text-anchor="start" x="103.62" y="-335.7" font-family="Times New Roman,serif" font-size="14.00"> right: 0x1EC2EEBA130</text>
</g>
<!-- Node1EC2EEBA160&#45;&gt;Node1EC2EEBA0D0 -->
<g id="edge4" class="edge">
<title>Node1EC2EEBA160&#45;&gt;Node1EC2EEBA0D0</title>
<path fill="none" stroke="black" d="M228.57,-480.36C223.52,-471.7 218.3,-462.73 213.15,-453.89"/>
<polygon fill="black" stroke="black" points="216.21,-452.18 208.15,-445.3 210.16,-455.71 216.21,-452.18"/>
</g>
<!-- Node1EC2EEB8CE0 -->
<g id="node7" class="node">
<title>Node1EC2EEB8CE0</title>
<path fill="#dbd284" stroke="black" d="M286.62,-320.5C286.62,-320.5 425.12,-320.5 425.12,-320.5 431.12,-320.5 437.12,-326.5 437.12,-332.5 437.12,-332.5 437.12,-431.5 437.12,-431.5 437.12,-437.5 431.12,-443.5 425.12,-443.5 425.12,-443.5 286.62,-443.5 286.62,-443.5 280.62,-443.5 274.62,-437.5 274.62,-431.5 274.62,-431.5 274.62,-332.5 274.62,-332.5 274.62,-326.5 280.62,-320.5 286.62,-320.5"/>
<polygon fill="none" stroke="black" points="287.62,-412 287.62,-434.5 424.12,-434.5 424.12,-412 287.62,-412"/>
<text xml:space="preserve" text-anchor="start" x="290.62" y="-418.2" font-family="Times New Roman,serif" font-size="14.00"> ptr: 0x1EC2EEB8CE0 </text>
<polygon fill="none" stroke="black" points="287.62,-384.5 287.62,-407 424.12,-407 424.12,-384.5 287.62,-384.5"/>
<text xml:space="preserve" text-anchor="start" x="348.75" y="-390.7" font-family="Times New Roman,serif" font-size="14.00"> 5 </text>
<polygon fill="#808080" stroke="none" points="287.62,-357 287.62,-379.5 424.12,-379.5 424.12,-357 287.62,-357"/>
<polygon fill="none" stroke="black" points="287.62,-357 287.62,-379.5 424.12,-379.5 424.12,-357 287.62,-357"/>
<text xml:space="preserve" text-anchor="start" x="321.38" y="-363.2" font-family="Times New Roman,serif" font-size="14.00"> left: NULL </text>
<polygon fill="#808080" stroke="none" points="287.62,-329.5 287.62,-352 424.12,-352 424.12,-329.5 287.62,-329.5"/>
<polygon fill="none" stroke="black" points="287.62,-329.5 287.62,-352 424.12,-352 424.12,-329.5 287.62,-329.5"/>
<text xml:space="preserve" text-anchor="start" x="319.5" y="-335.7" font-family="Times New Roman,serif" font-size="14.00"> right: NULL</text>
</g>
<!-- Node1EC2EEBA160&#45;&gt;Node1EC2EEB8CE0 -->
<g id="edge5" class="edge">
<title>Node1EC2EEBA160&#45;&gt;Node1EC2EEB8CE0</title>
<path fill="none" stroke="black" d="M299.18,-480.36C304.23,-471.7 309.45,-462.73 314.6,-453.89"/>
<polygon fill="black" stroke="black" points="317.59,-455.71 319.6,-445.3 311.54,-452.18 317.59,-455.71"/>
</g>
<!-- Node1EC2EEBA190 -->
<g id="node4" class="node">
<title>Node1EC2EEBA190</title>
<path fill="#bfbeb7" stroke="black" d="M12,-160.5C12,-160.5 149.75,-160.5 149.75,-160.5 155.75,-160.5 161.75,-166.5 161.75,-172.5 161.75,-172.5 161.75,-271.5 161.75,-271.5 161.75,-277.5 155.75,-283.5 149.75,-283.5 149.75,-283.5 12,-283.5 12,-283.5 6,-283.5 0,-277.5 0,-271.5 0,-271.5 0,-172.5 0,-172.5 0,-166.5 6,-160.5 12,-160.5"/>
<polygon fill="none" stroke="black" points="13,-252 13,-274.5 148.75,-274.5 148.75,-252 13,-252"/>
<text xml:space="preserve" text-anchor="start" x="16" y="-258.2" font-family="Times New Roman,serif" font-size="14.00"> ptr: 0x1EC2EEBA190 </text>
<polygon fill="none" stroke="black" points="13,-224.5 13,-247 148.75,-247 148.75,-224.5 13,-224.5"/>
<text xml:space="preserve" text-anchor="start" x="71.5" y="-230.7" font-family="Times New Roman,serif" font-size="14.00"> &#45;1 </text>
<polygon fill="#808080" stroke="none" points="13,-197 13,-219.5 148.75,-219.5 148.75,-197 13,-197"/>
<polygon fill="none" stroke="black" points="13,-197 13,-219.5 148.75,-219.5 148.75,-197 13,-197"/>
<text xml:space="preserve" text-anchor="start" x="46.38" y="-203.2" font-family="Times New Roman,serif" font-size="14.00"> left: NULL </text>
<polygon fill="#808080" stroke="none" points="13,-169.5 13,-192 148.75,-192 148.75,-169.5 13,-169.5"/>
<polygon fill="none" stroke="black" points="13,-169.5 13,-192 148.75,-192 148.75,-169.5 13,-169.5"/>
<text xml:space="preserve" text-anchor="start" x="44.5" y="-175.7" font-family="Times New Roman,serif" font-size="14.00"> right: NULL</text>
</g>
<!-- Node1EC2EEBA0D0&#45;&gt;Node1EC2EEBA190 -->
<g id="edge1" class="edge">
<title>Node1EC2EEBA0D0&#45;&gt;Node1EC2EEBA190</title>
<path fill="none" stroke="black" d="M136.95,-320.36C131.96,-311.7 126.79,-302.73 121.7,-293.89"/>
<polygon fill="black" stroke="black" points="124.78,-292.23 116.76,-285.31 118.72,-295.72 124.78,-292.23"/>
</g>
<!-- Node1EC2EEBA130 -->
<g id="node5" class="node">
<title>Node1EC2EEBA130</title>
<path fill="#d0a3fc" stroke="black" d="M192,-160.5C192,-160.5 335.75,-160.5 335.75,-160.5 341.75,-160.5 347.75,-166.5 347.75,-172.5 347.75,-172.5 347.75,-271.5 347.75,-271.5 347.75,-277.5 341.75,-283.5 335.75,-283.5 335.75,-283.5 192,-283.5 192,-283.5 186,-283.5 180,-277.5 180,-271.5 180,-271.5 180,-172.5 180,-172.5 180,-166.5 186,-160.5 192,-160.5"/>
<polygon fill="none" stroke="black" points="193,-252 193,-274.5 334.75,-274.5 334.75,-252 193,-252"/>
<text xml:space="preserve" text-anchor="start" x="199" y="-258.2" font-family="Times New Roman,serif" font-size="14.00"> ptr: 0x1EC2EEBA130 </text>
<polygon fill="none" stroke="black" points="193,-224.5 193,-247 334.75,-247 334.75,-224.5 193,-224.5"/>
<text xml:space="preserve" text-anchor="start" x="252.25" y="-230.7" font-family="Times New Roman,serif" font-size="14.00"> sin </text>
<polygon fill="#808080" stroke="none" points="193,-197 193,-219.5 334.75,-219.5 334.75,-197 193,-197"/>
<polygon fill="none" stroke="black" points="193,-197 193,-219.5 334.75,-219.5 334.75,-197 193,-197"/>
<text xml:space="preserve" text-anchor="start" x="229.38" y="-203.2" font-family="Times New Roman,serif" font-size="14.00"> left: NULL </text>
<polygon fill="#ce8efd" stroke="none" points="193,-169.5 193,-192 334.75,-192 334.75,-169.5 193,-169.5"/>
<polygon fill="none" stroke="black" points="193,-169.5 193,-192 334.75,-192 334.75,-169.5 193,-169.5"/>
<text xml:space="preserve" text-anchor="start" x="196" y="-175.7" font-family="Times New Roman,serif" font-size="14.00"> right: 0x1EC2EEB9B30</text>
</g>
<!-- Node1EC2EEBA0D0&#45;&gt;Node1EC2EEBA130 -->
<g id="edge3" class="edge">
<title>Node1EC2EEBA0D0&#45;&gt;Node1EC2EEBA130</title>
<path fill="none" stroke="black" d="M207.18,-320.36C212.23,-311.7 217.45,-302.73 222.6,-293.89"/>
<polygon fill="black" stroke="black" points="225.59,-295.71 227.6,-285.3 219.54,-292.18 225.59,-295.71"/>
</g>
<!-- Node1EC2EEB9B30 -->
<g id="node6" class="node">
<title>Node1EC2EEB9B30</title>
<path fill="#ce8efd" stroke="black" d="M195.38,-0.5C195.38,-0.5 332.38,-0.5 332.38,-0.5 338.38,-0.5 344.38,-6.5 344.38,-12.5 344.38,-12.5 344.38,-111.5 344.38,-111.5 344.38,-117.5 338.38,-123.5 332.38,-123.5 332.38,-123.5 195.38,-123.5 195.38,-123.5 189.38,-123.5 183.38,-117.5 183.38,-111.5 183.38,-111.5 183.38,-12.5 183.38,-12.5 183.38,-6.5 189.38,-0.5 195.38,-0.5"/>
<polygon fill="none" stroke="black" points="196.38,-92 196.38,-114.5 331.38,-114.5 331.38,-92 196.38,-92"/>
<text xml:space="preserve" text-anchor="start" x="199.38" y="-98.2" font-family="Times New Roman,serif" font-size="14.00"> ptr: 0x1EC2EEB9B30 </text>
<polygon fill="none" stroke="black" points="196.38,-64.5 196.38,-87 331.38,-87 331.38,-64.5 196.38,-64.5"/>
<text xml:space="preserve" text-anchor="start" x="256.75" y="-70.7" font-family="Times New Roman,serif" font-size="14.00"> x </text>
<polygon fill="#808080" stroke="none" points="196.38,-37 196.38,-59.5 331.38,-59.5 331.38,-37 196.38,-37"/>
<polygon fill="none" stroke="black" points="196.38,-37 196.38,-59.5 331.38,-59.5 331.38,-37 196.38,-37"/>
<text xml:space="preserve" text-anchor="start" x="229.38" y="-43.2" font-family="Times New Roman,serif" font-size="14.00"> left: NULL </text>
<polygon fill="#808080" stroke="none" points="196.38,-9.5 196.38,-32 331.38,-32 331.38,-9.5 196.38,-9.5"/>
<polygon fill="none" stroke="black" points="196.38,-9.5 196.38,-32 331.38,-32 331.38,-9.5 196.38,-9.5"/>
<text xml:space="preserve" text-anchor="start" x="227.5" y="-15.7" font-family="Times New Roman,serif" font-size="14.00"> right: NULL</text>
</g>
<!-- Node1EC2EEBA130&#45;&gt;Node1EC2EEB9B30 -->
<g id="edge2" class="edge">
<title>Node1EC2EEBA130&#45;&gt;Node1EC2EEB9B30</title>
<path fill="none" stroke="black" d="M263.88,-160.36C263.88,-152.17 263.88,-143.69 263.88,-135.32"/>
<polygon fill="black" stroke="black" points="267.38,-135.51 263.88,-125.51 260.38,-135.51 267.38,-135.51"/>
</g>
</g>
</svg>
