<?xml version="1.0" encoding="UTF-8" standalone="no"?>
<!DOCTYPE svg PUBLIC "-//W3C//DTD SVG 1.1//EN"
 "http://www.w3.org/Graphics/SVG/1.1/DTD/svg11.dtd">
<!-- Generated by graphviz version 14.0.4 (20251115.1723)
 -->
<!-- Title: G Pages: 1 -->
<svg width="621pt" height="612pt"
 viewBox="0.00 0.00 621.00 612.00" xmlns="http://www.w3.org/2000/svg" xmlns:xlink="http://www.w3.org/1999/xlink">
<g id="graph0" class="graph" transform="scale(1 1) rotate(0) translate(4 608)">
<title>G</title>
<polygon fill="white" stroke="none" points="-4,4 -4,-608 617.12,-608 617.12,4 -4,4"/>
<!-- Node1EC2EEB9160 -->
<g id="node1" class="node">
<title>Node1EC2EEB9160</title>
<path fill="#c4fe88" stroke="black" d="M190.75,-480.5C190.75,-480.5 334.5,-480.5 334.5,-480.5 340.5,-480.5 346.5,-486.5 346.5,-492.5 346.5,-492.5 346.5,-591.5 346.5,-591.5 346.5,-597.5 340.5,-603.5 334.5,-603.5 334.5,-603.5 190.75,-603.5 190.75,-603.5 184.75,-603.5 178.75,-597.5 178.75,-591.5 178.75,-591.5 178.75,-492.5 178.75,-492.5 178.75,-486.5 184.75,-480.5 190.75,-480.5"/>
<polygon fill="none" stroke="black" points="191.75,-572 191.75,-594.5 333.5,-594.5 333.5,-572 191.75,-572"/>
<text xml:space="preserve" text-anchor="start" x="199.25" y="-578.2" font-family="Times New Roman,serif" font-size="14.00"> ptr: 0x1EC2EEB9160 </text>
<polygon fill="none" stroke="black" points="191.75,-544.5 191.75,-567 333.5,-567 333.5,-544.5 191.75,-544.5"/>
<text xml:space="preserve" text-anchor="start" x="257" y="-550.7" font-family="Times New Roman,serif" font-size="14.00"> / </text>
<polygon fill="#f9b78e" stroke="none" points="191.75,-517 191.75,-539.5 333.5,-539.5 333.5,-517 191.75,-517"/>
<polygon fill="none" stroke="black" points="191.75,-517 191.75,-539.5 333.5,-539.5 333.5,-517 191.75,-517"/>
<text xml:space="preserve" text-anchor="start" x="196.62" y="-523.2" font-family="Times New Roman,serif" font-size="14.00"> left: 0x1EC2EEB8B00 </text>
<polygon fill="#fae0af" stroke="none" points="191.75,-489.5 191.75,-512 333.5,-512 333.5,-489.5 191.75,-489.5"/>
<polygon fill="none" stroke="black" points="191.75,-489.5 191.75,-512 333.5,-512 333.5,-489.5 191.75,-489.5"/>
<text xml:space="preserve" text-anchor="start" x="194.75" y="-495.7" font-family="Times New Roman,serif" font-size="14.00"> right: 0x1EC2EEB8B60</text>
</g>
<!-- Node1EC2EEB8B00 -->
<g id="node2" class="node">
<title>Node1EC2EEB8B00</title>
<path fill="#f9b78e" stroke="black" d="M99.5,-320.5C99.5,-320.5 241.75,-320.5 241.75,-320.5 247.75,-320.5 253.75,-326.5 253.75,-332.5 253.75,-332.5 253.75,-431.5 253.75,-431.5 253.75,-437.5 247.75,-443.5 241.75,-443.5 241.75,-443.5 99.5,-443.5 99.5,-443.5 93.5,-443.5 87.5,-437.5 87.5,-431.5 87.5,-431.5 87.5,-332.5 87.5,-332.5 87.5,-326.5 93.5,-320.5 99.5,-320.5"/>
<polygon fill="none" stroke="black" points="100.5,-412 100.5,-434.5 240.75,-434.5 240.75,-412 100.5,-412"/>
<text xml:space="preserve" text-anchor="start" x="106.12" y="-418.2" font-family="Times New Roman,serif" font-size="14.00"> ptr: 0x1EC2EEB8B00 </text>
<polygon fill="none" stroke="black" points="100.5,-384.5 100.5,-407 240.75,-407 240.75,-384.5 100.5,-384.5"/>
<text xml:space="preserve" text-anchor="start" x="157.88" y="-390.7" font-family="Times New Roman,serif" font-size="14.00"> cos </text>
<polygon fill="#808080" stroke="none" points="100.5,-357 100.5,-379.5 240.75,-379.5 240.75,-357 100.5,-357"/>
<polygon fill="none" stroke="black" points="100.5,-357 100.5,-379.5 240.75,-379.5 240.75,-357 100.5,-357"/>
<text xml:space="preserve" text-anchor="start" x="136.12" y="-363.2" font-family="Times New Roman,serif" font-size="14.00"> left: NULL </text>
<polygon fill="#bcb0ee" stroke="none" points="100.5,-329.5 100.5,-352 240.75,-352 240.75,-329.5 100.5,-329.5"/>
<polygon fill="none" stroke="black" points="100.5,-329.5 100.5,-352 240.75,-352 240.75,-329.5 100.5,-329.5"/>
<text xml:space="preserve" text-anchor="start" x="103.5" y="-335.7" font-family="Times New Roman,serif" font-size="14.00"> right: 0x1EC2EEB8F80</text>
</g>
<!-- Node1EC2EEB9160&#45;&gt;Node1EC2EEB8B00 -->
<g id="edge4" class="edge">
<title>Node1EC2EEB9160&#45;&gt;Node1EC2EEB8B00</title>
<path fill="none" stroke="black" d="M227.32,-480.36C222.27,-471.7 217.05,-462.73 211.9,-453.89"/>
<polygon fill="black" stroke="black" points="214.96,-452.18 206.9,-445.3 208.91,-455.71 214.96,-452.18"/>
</g>
<!-- Node1EC2EEB8B60 -->
<g id="node6" class="node">
<title>Node1EC2EEB8B60</title>
<path fill="#fae0af" stroke="black" d="M283.75,-320.5C283.75,-320.5 427.5,-320.5 427.5,-320.5 433.5,-320.5 439.5,-326.5 439.5,-332.5 439.5,-332.5 439.5,-431.5 439.5,-431.5 439.5,-437.5 433.5,-443.5 427.5,-443.5 427.5,-443.5 283.75,-443.5 283.75,-443.5 277.75,-443.5 271.75,-437.5 271.75,-431.5 271.75,-431.5 271.75,-332.5 271.75,-332.5 271.75,-326.5 277.75,-320.5 283.75,-320.5"/>
<polygon fill="none" stroke="black" points="284.75,-412 284.75,-434.5 426.5,-434.5 426.5,-412 284.75,-412"/>
<text xml:space="preserve" text-anchor="start" x="291.12" y="-418.2" font-family="Times New Roman,serif" font-size="14.00"> ptr: 0x1EC2EEB8B60 </text>
<polygon fill="none" stroke="black" points="284.75,-384.5 284.75,-407 426.5,-407 426.5,-384.5 284.75,-384.5"/>
<text xml:space="preserve" text-anchor="start" x="347.75" y="-390.7" font-family="Times New Roman,serif" font-size="14.00"> + </text>
<polygon fill="#da81c7" stroke="none" points="284.75,-357 284.75,-379.5 426.5,-379.5 426.5,-357 284.75,-357"/>
<polygon fill="none" stroke="black" points="284.75,-357 284.75,-379.5 426.5,-379.5 426.5,-357 284.75,-357"/>
<text xml:space="preserve" text-anchor="start" x="289.62" y="-363.2" font-family="Times New Roman,serif" font-size="14.00"> left: 0x1EC2EEB8C50 </text>
<polygon fill="#82d4ab" stroke="none" points="284.75,-329.5 284.75,-352 426.5,-352 426.5,-329.5 284.75,-329.5"/>
<polygon fill="none" stroke="black" points="284.75,-329.5 284.75,-352 426.5,-352 426.5,-329.5 284.75,-329.5"/>
<text xml:space="preserve" text-anchor="start" x="287.75" y="-335.7" font-family="Times New Roman,serif" font-size="14.00"> right: 0x1EC2EEB8B90</text>
</g>
<!-- Node1EC2EEB9160&#45;&gt;Node1EC2EEB8B60 -->
<g id="edge7" class="edge">
<title>Node1EC2EEB9160&#45;&gt;Node1EC2EEB8B60</title>
<path fill="none" stroke="black" d="M298.32,-480.36C303.41,-471.7 308.7,-462.73 313.9,-453.89"/>
<polygon fill="black" stroke="black" points="316.9,-455.69 318.96,-445.3 310.87,-452.14 316.9,-455.69"/>
</g>
<!-- Node1EC2EEB8F80 -->
<g id="node3" class="node">
<title>Node1EC2EEB8F80</title>
<path fill="#bcb0ee" stroke="black" d="M99.5,-160.5C99.5,-160.5 241.75,-160.5 241.75,-160.5 247.75,-160.5 253.75,-166.5 253.75,-172.5 253.75,-172.5 253.75,-271.5 253.75,-271.5 253.75,-277.5 247.75,-283.5 241.75,-283.5 241.75,-283.5 99.5,-283.5 99.5,-283.5 93.5,-283.5 87.5,-277.5 87.5,-271.5 87.5,-271.5 87.5,-172.5 87.5,-172.5 87.5,-166.5 93.5,-160.5 99.5,-160.5"/>
<polygon fill="none" stroke="black" points="100.5,-252 100.5,-274.5 240.75,-274.5 240.75,-252 100.5,-252"/>
<text xml:space="preserve" text-anchor="start" x="106.88" y="-258.2" font-family="Times New Roman,serif" font-size="14.00"> ptr: 0x1EC2EEB8F80 </text>
<polygon fill="none" stroke="black" points="100.5,-224.5 100.5,-247 240.75,-247 240.75,-224.5 100.5,-224.5"/>
<text xml:space="preserve" text-anchor="start" x="163.5" y="-230.7" font-family="Times New Roman,serif" font-size="14.00"> * </text>
<polygon fill="#8da9bc" stroke="none" points="100.5,-197 100.5,-219.5 240.75,-219.5 240.75,-197 100.5,-197"/>
<polygon fill="none" stroke="black" points="100.5,-197 100.5,-219.5 240.75,-219.5 240.75,-197 100.5,-197"/>
<text xml:space="preserve" text-anchor="start" x="103.5" y="-203.2" font-family="Times New Roman,serif" font-size="14.00"> left: 0x1EC2EEB8CB0 </text>
<polygon fill="#b5d8cf" stroke="none" points="100.5,-169.5 100.5,-192 240.75,-192 240.75,-169.5 100.5,-169.5"/>
<polygon fill="none" stroke="black" points="100.5,-169.5 100.5,-192 240.75,-192 240.75,-169.5 100.5,-169.5"/>
<text xml:space="preserve" text-anchor="start" x="103.88" y="-175.7" font-family="Times New Roman,serif" font-size="14.00"> right: 0x1EC2EEB9190</text>
</g>
<!-- Node1EC2EEB8B00&#45;&gt;Node1EC2EEB8F80 -->
<g id="edge3" class="edge">
<title>Node1EC2EEB8B00&#45;&gt;Node1EC2EEB8F80</title>
<path fill="none" stroke="black" d="M170.62,-320.36C170.62,-312.17 170.62,-303.69 170.62,-295.32"/>
<polygon fill="black" stroke="black" points="174.13,-295.51 170.63,-285.51 167.13,-295.51 174.13,-295.51"/>
</g>
<!-- Node1EC2EEB8CB0 -->
<g id="node4" class="node">
<title>Node1EC2EEB8CB0</title>
<path fill="#8da9bc" stroke="black" d="M12,-0.5C12,-0.5 151.25,-0.5 151.25,-0.5 157.25,-0.5 163.25,-6.5 163.25,-12.5 163.25,-12.5 163.25,-111.5 163.25,-111.5 163.25,-117.5 157.25,-123.5 151.25,-123.5 151.25,-123.5 12,-123.5 12,-123.5 6,-123.5 0,-117.5 0,-111.5 0,-111.5 0,-12.5 0,-12.5 0,-6.5 6,-0.5 12,-0.5"/>
<polygon fill="none" stroke="black" points="13,-92 13,-114.5 150.25,-114.5 150.25,-92 13,-92"/>
<text xml:space="preserve" text-anchor="start" x="16" y="-98.2" font-family="Times New Roman,serif" font-size="14.00"> ptr: 0x1EC2EEB8CB0 </text>
<polygon fill="none" stroke="black" points="13,-64.5 13,-87 150.25,-87 150.25,-64.5 13,-64.5"/>
<text xml:space="preserve" text-anchor="start" x="74.5" y="-70.7" font-family="Times New Roman,serif" font-size="14.00"> 1 </text>
<polygon fill="#808080" stroke="none" points="13,-37 13,-59.5 150.25,-59.5 150.25,-37 13,-37"/>
<polygon fill="none" stroke="black" points="13,-37 13,-59.5 150.25,-59.5 150.25,-37 13,-37"/>
<text xml:space="preserve" text-anchor="start" x="47.12" y="-43.2" font-family="Times New Roman,serif" font-size="14.00"> left: NULL </text>
<polygon fill="#808080" stroke="none" points="13,-9.5 13,-32 150.25,-32 150.25,-9.5 13,-9.5"/>
<polygon fill="none" stroke="black" points="13,-9.5 13,-32 150.25,-32 150.25,-9.5 13,-9.5"/>
<text xml:space="preserve" text-anchor="start" x="45.25" y="-15.7" font-family="Times New Roman,serif" font-size="14.00"> right: NULL</text>
</g>
<!-- Node1EC2EEB8F80&#45;&gt;Node1EC2EEB8CB0 -->
<g id="edge1" class="edge">
<title>Node1EC2EEB8F80&#45;&gt;Node1EC2EEB8CB0</title>
<path fill="none" stroke="black" d="M136.47,-160.36C131.59,-151.7 126.54,-142.73 121.56,-133.89"/>
<polygon fill="black" stroke="black" points="124.68,-132.31 116.73,-125.31 118.58,-135.74 124.68,-132.31"/>
</g>
<!-- Node1EC2EEB9190 -->
<g id="node5" class="node">
<title>Node1EC2EEB9190</title>
<path fill="#b5d8cf" stroke="black" d="M193.25,-0.5C193.25,-0.5 328,-0.5 328,-0.5 334,-0.5 340,-6.5 340,-12.5 340,-12.5 340,-111.5 340,-111.5 340,-117.5 334,-123.5 328,-123.5 328,-123.5 193.25,-123.5 193.25,-123.5 187.25,-123.5 181.25,-117.5 181.25,-111.5 181.25,-111.5 181.25,-12.5 181.25,-12.5 181.25,-6.5 187.25,-0.5 193.25,-0.5"/>
<polygon fill="none" stroke="black" points="194.25,-92 194.25,-114.5 327,-114.5 327,-92 194.25,-92"/>
<text xml:space="preserve" text-anchor="start" x="197.25" y="-98.2" font-family="Times New Roman,serif" font-size="14.00"> ptr: 0x1EC2EEB9190 </text>
<polygon fill="none" stroke="black" points="194.25,-64.5 194.25,-87 327,-87 327,-64.5 194.25,-64.5"/>
<text xml:space="preserve" text-anchor="start" x="253.5" y="-70.7" font-family="Times New Roman,serif" font-size="14.00"> x </text>
<polygon fill="#808080" stroke="none" points="194.25,-37 194.25,-59.5 327,-59.5 327,-37 194.25,-37"/>
<polygon fill="none" stroke="black" points="194.25,-37 194.25,-59.5 327,-59.5 327,-37 194.25,-37"/>
<text xml:space="preserve" text-anchor="start" x="226.12" y="-43.2" font-family="Times New Roman,serif" font-size="14.00"> left: NULL </text>
<polygon fill="#808080" stroke="none" points="194.25,-9.5 194.25,-32 327,-32 327,-9.5 194.25,-9.5"/>
<polygon fill="none" stroke="black" points="194.25,-9.5 194.25,-32 327,-32 327,-9.5 194.25,-9.5"/>
<text xml:space="preserve" text-anchor="start" x="224.25" y="-15.7" font-family="Times New Roman,serif" font-size="14.00"> right: NULL</text>
</g>
<!-- Node1EC2EEB8F80&#45;&gt;Node1EC2EEB9190 -->
<g id="edge2" class="edge">
<title>Node1EC2EEB8F80&#45;&gt;Node1EC2EEB9190</title>
<path fill="none" stroke="black" d="M205.16,-160.36C210.1,-151.7 215.21,-142.73 220.24,-133.89"/>
<polygon fill="black" stroke="black" points="223.22,-135.73 225.13,-125.31 217.14,-132.27 223.22,-135.73"/>
</g>
<!-- Node1EC2EEB8C50 -->
<g id="node7" class="node">
<title>Node1EC2EEB8C50</title>
<path fill="#da81c7" stroke="black" d="M285.12,-160.5C285.12,-160.5 422.12,-160.5 422.12,-160.5 428.12,-160.5 434.12,-166.5 434.12,-172.5 434.12,-172.5 434.12,-271.5 434.12,-271.5 434.12,-277.5 428.12,-283.5 422.12,-283.5 422.12,-283.5 285.12,-283.5 285.12,-283.5 279.12,-283.5 273.12,-277.5 273.12,-271.5 273.12,-271.5 273.12,-172.5 273.12,-172.5 273.12,-166.5 279.12,-160.5 285.12,-160.5"/>
<polygon fill="none" stroke="black" points="286.12,-252 286.12,-274.5 421.12,-274.5 421.12,-252 286.12,-252"/>
<text xml:space="preserve" text-anchor="start" x="289.12" y="-258.2" font-family="Times New Roman,serif" font-size="14.00"> ptr: 0x1EC2EEB8C50 </text>
<polygon fill="none" stroke="black" points="286.12,-224.5 286.12,-247 421.12,-247 421.12,-224.5 286.12,-224.5"/>
<text xml:space="preserve" text-anchor="start" x="346.5" y="-230.7" font-family="Times New Roman,serif" font-size="14.00"> 3 </text>
<polygon fill="#808080" stroke="none" points="286.12,-197 286.12,-219.5 421.12,-219.5 421.12,-197 286.12,-197"/>
<polygon fill="none" stroke="black" points="286.12,-197 286.12,-219.5 421.12,-219.5 421.12,-197 286.12,-197"/>
<text xml:space="preserve" text-anchor="start" x="319.12" y="-203.2" font-family="Times New Roman,serif" font-size="14.00"> left: NULL </text>
<polygon fill="#808080" stroke="none" points="286.12,-169.5 286.12,-192 421.12,-192 421.12,-169.5 286.12,-169.5"/>
<polygon fill="none" stroke="black" points="286.12,-169.5 286.12,-192 421.12,-192 421.12,-169.5 286.12,-169.5"/>
<text xml:space="preserve" text-anchor="start" x="317.25" y="-175.7" font-family="Times New Roman,serif" font-size="14.00"> right: NULL</text>
</g>
<!-- Node1EC2EEB8B60&#45;&gt;Node1EC2EEB8C50 -->
<g id="edge5" class="edge">
<title>Node1EC2EEB8B60&#45;&gt;Node1EC2EEB8C50</title>
<path fill="none" stroke="black" d="M354.86,-320.36C354.75,-312.17 354.65,-303.69 354.54,-295.32"/>
<polygon fill="black" stroke="black" points="358.04,-295.46 354.42,-285.51 351.04,-295.55 358.04,-295.46"/>
</g>
<!-- Node1EC2EEB8B90 -->
<g id="node8" class="node">
<title>Node1EC2EEB8B90</title>
<path fill="#82d4ab" stroke="black" d="M464.12,-160.5C464.12,-160.5 601.12,-160.5 601.12,-160.5 607.12,-160.5 613.12,-166.5 613.12,-172.5 613.12,-172.5 613.12,-271.5 613.12,-271.5 613.12,-277.5 607.12,-283.5 601.12,-283.5 601.12,-283.5 464.12,-283.5 464.12,-283.5 458.12,-283.5 452.12,-277.5 452.12,-271.5 452.12,-271.5 452.12,-172.5 452.12,-172.5 452.12,-166.5 458.12,-160.5 464.12,-160.5"/>
<polygon fill="none" stroke="black" points="465.12,-252 465.12,-274.5 600.12,-274.5 600.12,-252 465.12,-252"/>
<text xml:space="preserve" text-anchor="start" x="468.12" y="-258.2" font-family="Times New Roman,serif" font-size="14.00"> ptr: 0x1EC2EEB8B90 </text>
<polygon fill="none" stroke="black" points="465.12,-224.5 465.12,-247 600.12,-247 600.12,-224.5 465.12,-224.5"/>
<text xml:space="preserve" text-anchor="start" x="525.5" y="-230.7" font-family="Times New Roman,serif" font-size="14.00"> 2 </text>
<polygon fill="#808080" stroke="none" points="465.12,-197 465.12,-219.5 600.12,-219.5 600.12,-197 465.12,-197"/>
<polygon fill="none" stroke="black" points="465.12,-197 465.12,-219.5 600.12,-219.5 600.12,-197 465.12,-197"/>
<text xml:space="preserve" text-anchor="start" x="498.12" y="-203.2" font-family="Times New Roman,serif" font-size="14.00"> left: NULL </text>
<polygon fill="#808080" stroke="none" points="465.12,-169.5 465.12,-192 600.12,-192 600.12,-169.5 465.12,-169.5"/>
<polygon fill="none" stroke="black" points="465.12,-169.5 465.12,-192 600.12,-192 600.12,-169.5 465.12,-169.5"/>
<text xml:space="preserve" text-anchor="start" x="496.25" y="-175.7" font-family="Times New Roman,serif" font-size="14.00"> right: NULL</text>
</g>
<!-- Node1EC2EEB8B60&#45;&gt;Node1EC2EEB8B90 -->
<g id="edge6" class="edge">
<title>Node1EC2EEB8B60&#45;&gt;Node1EC2EEB8B90</title>
<path fill="none" stroke="black" d="M423.8,-320.14C434.33,-310.74 445.27,-300.98 455.96,-291.43"/>
<polygon fill="black" stroke="black" points="458.22,-294.11 463.35,-284.84 453.56,-288.89 458.22,-294.11"/>
</g>
</g>
</svg>
